HIERARCHY
ROOT hip
{
	OFFSET 0.000000 0.000000 0.000000 
	CHANNELS 6 Xposition Yposition Zposition Xrotation Zrotation Yrotation
	JOINT abdomen
	{
		OFFSET 0.000000 3.402643 0.000000 
		CHANNELS 3 Xrotation Zrotation Yrotation
		JOINT chest
		{
			OFFSET 0.000000 8.438565 -0.680529 
			CHANNELS 3 Xrotation Zrotation Yrotation
			JOINT neck
			{
				OFFSET 0.000000 10.207942 -0.272212 
				CHANNELS 3 Xrotation Zrotation Yrotation
				JOINT head
				{
					OFFSET 0.000000 3.130431 0.000000 
					CHANNELS 3 Xrotation Zrotation Yrotation
					End Site
					{
						OFFSET 0.000000 3.130435 0.000000 
					}
				}
			}
			JOINT lCollar
			{
				OFFSET 3.470700 6.669187 -0.816635 
				CHANNELS 3 Yrotation Zrotation Xrotation
				JOINT lShldr
				{
					OFFSET 3.198488 0.000000 0.000000 
					CHANNELS 3 Zrotation Yrotation Xrotation
					JOINT lForeArm
					{
						OFFSET 10.139888 0.000000 0.000000 
						CHANNELS 3 Yrotation Zrotation Xrotation
						JOINT lHand
						{
							OFFSET 8.370511 0.000000 0.000000 
							CHANNELS 3 Zrotation Yrotation Xrotation
							End Site
							{
								OFFSET 4.083176 0.000000 0.000000 
							}
						}
					}
				}
			}
			JOINT rCollar
			{
				OFFSET -3.470700 6.669187 -0.816635 
				CHANNELS 3 Yrotation Zrotation Xrotation
				JOINT rShldr
				{
					OFFSET -3.198488 0.000000 0.000000 
					CHANNELS 3 Zrotation Yrotation Xrotation
					JOINT rForeArm
					{
						OFFSET -10.139888 0.000000 0.000000 
						CHANNELS 3 Yrotation Zrotation Xrotation
						JOINT rHand
						{
							OFFSET -8.370511 0.000000 0.000000 
							CHANNELS 3 Zrotation Yrotation Xrotation
							End Site
							{
								OFFSET -4.083176 0.000000 0.000000 
							}
						}
					}
				}
			}
		}
	}
	JOINT lThigh
	{
		OFFSET 5.308129 -1.633274 1.361059 
		CHANNELS 3 Xrotation Zrotation Yrotation
		JOINT lShin
		{
			OFFSET -2.041588 -20.007561 0.000000 
			CHANNELS 3 Xrotation Zrotation Yrotation
			JOINT lFoot
			{
				OFFSET 0.000000 -19.190928 -1.224953 
				CHANNELS 3 Xrotation Yrotation Zrotation
				End Site
				{
					OFFSET 0.000000 -2.449906 4.627600 
				}
			}
		}
	}
	JOINT rThigh
	{
		OFFSET -5.308129 -1.633274 1.361059 
		CHANNELS 3 Xrotation Zrotation Yrotation
		JOINT rShin
		{
			OFFSET 2.041588 -20.007561 0.000000 
			CHANNELS 3 Xrotation Zrotation Yrotation
			JOINT rFoot
			{
				OFFSET 0.000000 -19.190928 -1.224953 
				CHANNELS 3 Xrotation Yrotation Zrotation
				End Site
				{
					OFFSET 0.000000 -2.449906 4.627600 
				}
			}
		}
	}
}
MOTION
Frames: 10
Frame Time: 0.033333
267.487488 48.127861 -0.867428 -1.135904 4.227688 89.018044 0.000000 0.000000 0.000000 0.237656 9.531169 -2.332621 20.615988 -8.052932 -15.248491 22.123650 -4.558154 -1.339280 10.792593 13.251775 -13.601070 -69.550217 20.388615 87.214340 -64.192383 -1.818165 -21.514185 -3.337700 -4.773331 -0.894103 -3.367850 -23.521584 -16.157467 70.620499 -19.269196 75.015953 56.382111 0.759223 -0.564340 -10.800413 0.797157 -1.685569 5.841330 3.755889 3.064623 23.051079 -2.429558 -6.587818 -20.160385 0.606182 -1.273064 -7.821300 -7.263892 -16.708944 -3.405795 1.931466 0.296121 6.427836 4.691254 6.103021 
268.826294 47.933407 -0.588934 -1.546742 4.002452 89.335640 0.000000 0.000000 0.000000 -0.714100 10.057829 -2.009273 21.264011 -8.244040 -15.564905 22.109772 -4.339945 -1.276403 10.715032 13.331875 -14.775694 -69.097404 22.069874 88.357018 -64.531815 -1.822620 -21.712151 -3.376830 -4.784823 -0.889408 -2.999983 -23.833742 -17.895531 70.714783 -21.812256 75.662071 56.424164 0.753541 -0.398336 -11.205604 0.673251 -1.691383 6.698372 4.648537 2.796697 23.880875 -2.473830 -6.646307 -21.472797 0.694141 -1.870339 -9.149596 -6.776215 -18.440222 -3.481980 1.970010 1.853768 0.713703 4.154656 8.841743 
270.183228 47.737473 -0.277611 -1.585658 3.875473 89.941879 0.000000 0.000000 0.000000 -1.298908 9.968193 -1.797132 21.519285 -8.199650 -15.889289 22.135424 -4.130534 -1.217970 10.592057 13.502420 -15.335213 -68.655853 22.762814 89.088135 -64.899536 -1.822685 -21.760496 -3.570185 -4.841534 -0.875275 -2.870112 -23.816006 -18.604704 70.896317 -22.936268 76.097618 56.551037 0.750602 -0.410481 -11.031948 0.727760 -1.687671 7.663896 5.243284 2.045886 24.463886 -2.484723 -6.528494 -22.366888 0.826997 -2.747306 -9.644314 -6.498049 -19.439638 -3.521192 1.999277 3.003485 -3.829481 3.835732 10.128778 
271.289215 47.618504 0.023983 -0.705217 4.413729 91.606041 0.000000 0.000000 0.000000 -0.158053 8.662078 -2.308689 20.524046 -7.828828 -16.222715 22.172464 -4.006446 -1.181296 10.581348 13.474640 -13.780576 -68.468658 20.271515 88.356171 -65.102005 -1.813866 -21.526443 -3.542559 -4.833508 -0.871731 -3.383709 -23.188133 -16.254156 71.311989 -19.721912 75.220001 56.661865 0.776389 -0.835873 -11.214880 0.670941 -1.689499 9.362031 4.958531 -0.402830 24.070791 -2.412512 -5.839066 -22.257479 0.919240 -3.953703 -8.659846 -7.173760 -19.923986 -3.517738 1.997039 2.905919 -4.160003 3.839077 9.972568 
272.323792 47.456532 0.391582 -0.745354 5.282759 91.728539 0.000000 0.000000 0.000000 0.721059 8.632139 -1.825125 20.306122 -7.896229 -16.369629 22.132044 -3.931147 -1.160326 10.541215 13.290914 -13.356803 -68.210022 19.706656 88.048256 -64.963982 -1.809284 -21.472357 -3.464299 -4.810495 -0.881181 -3.367630 -23.077957 -15.697421 71.482910 -18.797045 75.256332 56.751774 0.767450 -0.718102 -10.821239 0.791654 -1.691430 11.563965 5.552525 -1.210591 24.248859 -2.354189 -5.372047 -22.434347 1.105523 -5.283679 -7.673665 -6.256124 -19.472395 -3.541652 2.018469 3.881103 2.101207 4.680252 4.683915 
273.600494 47.297306 0.776804 -1.039523 5.253046 92.122009 0.000000 0.000000 0.000000 0.069192 8.896480 -1.921512 20.664989 -8.025788 -16.377295 22.202152 -4.024936 -1.187925 10.456757 13.200670 -13.817868 -68.058723 20.478041 88.194420 -64.688972 -1.823911 -21.767914 -2.803175 -4.627216 -0.931226 -3.093772 -23.140841 -16.369526 71.499863 -19.541569 75.757813 56.599064 0.752932 -0.466759 -10.673043 0.829950 -1.681426 12.342940 6.278823 -2.909835 25.191614 -2.139378 -4.140633 -22.475592 1.262749 -7.139307 -7.593345 -5.247617 -18.868994 -3.549368 2.027616 4.378624 8.710425 5.423793 0.177985 
274.683746 47.220905 1.194270 -1.373549 5.516002 92.407616 0.000000 0.000000 0.000000 0.009891 9.130859 -2.116041 20.700399 -8.145226 -16.142138 22.417822 -4.040227 -1.188120 10.572845 13.055408 -13.836573 -68.216980 20.530706 87.930786 -64.268898 -1.830425 -21.781662 -2.869939 -4.646645 -0.931069 -2.867314 -23.186319 -16.451908 71.663521 -19.478086 75.670433 56.161396 0.784384 -0.909109 -11.439650 0.613630 -1.693334 13.341763 7.134434 -4.252251 26.047083 -1.929076 -3.086766 -21.720240 1.454301 -9.149635 -11.968814 -6.118948 -18.415071 6.940352 2.137743 4.286691 9.778287 5.762174 -2.539489 
276.022980 47.187382 1.659217 -1.894790 5.895236 92.578781 0.000000 0.000000 0.000000 0.128690 9.423805 -2.204177 20.717581 -8.165543 -16.051664 22.572308 -3.914306 -1.158775 10.608184 13.015319 -13.771193 -68.348862 20.303720 87.869530 -64.134552 -1.830189 -21.850094 -3.014969 -4.689009 -0.920862 -2.731594 -23.156553 -16.394182 71.721817 -19.385942 75.553871 55.978161 0.806157 -1.311218 -10.517873 0.869793 -1.682923 14.123439 8.188610 -5.783128 27.294209 -1.724398 -2.246979 -20.443180 1.613435 -11.325267 -13.572179 -5.799078 -18.538517 13.604556 2.069409 4.548151 7.025607 5.946583 -5.475773 
277.185822 47.175194 2.166948 -2.632667 6.214189 92.830681 0.000000 0.000000 0.000000 -0.128850 9.843725 -2.502173 21.002916 -8.189842 -16.031420 22.686579 -3.722868 -1.099793 10.599782 13.090675 -14.105858 -68.335983 20.552946 88.305161 -64.249069 -1.837807 -21.968874 -2.918283 -4.660760 -0.927680 -2.530472 -23.266991 -16.924747 71.728661 -20.200762 75.730164 56.002739 0.791250 -1.025968 -9.937078 1.040315 -1.671028 14.391758 9.518494 -7.512338 29.155809 -1.515147 -1.678567 -18.794275 1.769321 -13.362652 -13.773386 -5.063362 -20.044662 18.021940 1.994878 5.302125 3.959280 5.966718 -6.770838 
278.178711 47.201294 2.705586 -3.294722 6.805245 93.183830 0.000000 0.000000 0.000000 -0.188336 9.872995 -2.658768 21.265352 -7.837004 -16.073351 22.940519 -3.690311 -1.089495 10.320479 13.190400 -14.111403 -68.025398 20.370523 88.732536 -64.405800 -1.830600 -21.836552 -3.093233 -4.711948 -0.911591 -2.655317 -23.038227 -16.849895 71.650314 -20.463320 75.793839 56.047298 0.773595 -0.704521 -9.629422 1.130281 -1.673056 14.676065 10.847556 -9.058212 31.179356 -1.359265 -1.369255 -16.432842 1.876315 -15.150211 -12.565701 -4.011522 -21.876289 20.354618 1.904055 5.982497 1.353574 5.993123 -8.111103 
